<svg xmlns="http://www.w3.org/2000/svg" viewBox="0 0 64 64" role="img" aria-label="Physics Lab">
  <defs>
    <linearGradient id="bg" x1="10" x2="54" y1="6" y2="58" gradientUnits="userSpaceOnUse">
      <stop offset="0" stop-color="#0d1f3a"/>
      <stop offset="1" stop-color="#06142a"/>
    </linearGradient>
    <linearGradient id="wave" x1="10" x2="54" y1="48" y2="14" gradientUnits="userSpaceOnUse">
      <stop offset="0" stop-color="#1e6dff"/>
      <stop offset="1" stop-color="#4f92ff"/>
    </linearGradient>
  </defs>
  <rect width="64" height="64" rx="14" fill="url(#bg)"/>
  <path d="M18 42h28" stroke="#e6eef7" stroke-width="2" stroke-linecap="round" stroke-dasharray="4 4" opacity=".72"/>
  <path d="M32 20v23" stroke="#e6eef7" stroke-width="2" stroke-linecap="round" stroke-dasharray="4 4" opacity=".72"/>
  <path d="M18 42c8-15 17-20 28-3" fill="none" stroke="#e6eef7" stroke-width="4" stroke-linecap="round"/>
  <path d="M12 42c13-20 23-25 38-6" fill="none" stroke="url(#wave)" stroke-width="5" stroke-linecap="round"/>
  <path d="M12 48c13 3 30-7 42-28" fill="none" stroke="url(#wave)" stroke-width="5" stroke-linecap="round"/>
  <path d="M47 13A22 22 0 0 0 12 36" fill="none" stroke="#ffffff" stroke-width="4" stroke-linecap="round"/>
  <path d="M51 18a22 22 0 0 1-2 28" fill="none" stroke="#ffffff" stroke-width="4" stroke-linecap="round"/>
  <path d="M13 47a22 22 0 0 0 33 5" fill="none" stroke="#ffffff" stroke-width="4" stroke-linecap="round"/>
  <circle cx="50" cy="18" r="5" fill="#1e6dff"/>
  <circle cx="13" cy="42" r="3.5" fill="#16c2a3"/>
  <circle cx="52" cy="42" r="3.5" fill="#ff8a00"/>
</svg>
